<?xml version="1.0" encoding="UTF-8" standalone="no"?>
<!DOCTYPE svg PUBLIC "-//W3C//DTD SVG 1.1//EN" "http://www.w3.org/Graphics/SVG/1.1/DTD/svg11.dtd">
<svg version="1.1" xmlns="http://www.w3.org/2000/svg" xmlns:xlink="http://www.w3.org/1999/xlink" preserveAspectRatio="xMidYMid meet" viewBox="0 0 143 49" width="143" height="49"><defs><path d="M73.16 21.55L73.37 21.56L73.58 21.58L73.79 21.61L73.99 21.64L74.2 21.68L74.4 21.72L74.6 21.76L74.8 21.82L74.99 21.88L75.18 21.94L75.38 22.01L75.56 22.09L75.75 22.17L75.93 22.26L76.11 22.36L76.28 22.46L76.46 22.57L76.63 22.69L76.79 22.81L76.96 22.95L77.11 23.09L77.27 23.23L77.42 23.39L77.57 23.55L77.71 23.72L77.85 23.9L77.99 24.09L78.12 24.29L78.24 24.5L78.37 24.71L78.48 24.93L78.6 25.17L78.7 25.41L78.81 25.66L78.9 25.92L79 26.19L79.08 26.47L79.08 26.4L79.08 21.89L81.88 21.89L81.88 34.16L84.08 38.86L81.12 38.86L79.08 34.62L78.99 34.86L78.89 35.09L78.79 35.32L78.69 35.54L78.58 35.75L78.46 35.95L78.34 36.15L78.22 36.35L78.09 36.53L77.96 36.71L77.82 36.88L77.68 37.05L77.54 37.21L77.39 37.36L77.24 37.5L77.09 37.64L76.93 37.78L76.77 37.9L76.6 38.02L76.43 38.14L76.26 38.25L76.09 38.35L75.91 38.44L75.73 38.54L75.54 38.62L75.36 38.7L75.17 38.77L74.98 38.84L74.79 38.9L74.59 38.96L74.39 39.01L74.19 39.05L73.99 39.09L73.79 39.13L73.58 39.16L73.37 39.18L73.16 39.2L72.95 39.21L72.74 39.22L72.52 39.22L72.16 39.22L71.8 39.2L71.45 39.16L71.1 39.12L70.77 39.06L70.43 38.99L70.11 38.91L69.79 38.81L69.48 38.7L69.18 38.58L68.88 38.45L68.6 38.31L68.32 38.16L68.05 38L67.78 37.82L67.53 37.63L67.28 37.44L67.05 37.23L66.82 37.01L66.6 36.79L66.39 36.55L66.19 36.3L66 36.05L65.82 35.78L65.64 35.51L65.48 35.22L65.33 34.93L65.19 34.63L65.06 34.31L64.94 34L64.83 33.67L64.73 33.33L64.64 32.99L64.57 32.64L64.5 32.28L64.45 31.91L64.4 31.54L64.37 31.16L64.36 30.77L64.35 30.37L64.36 29.98L64.37 29.59L64.4 29.21L64.45 28.83L64.5 28.47L64.57 28.11L64.64 27.76L64.73 27.41L64.83 27.08L64.94 26.75L65.06 26.43L65.19 26.12L65.33 25.82L65.48 25.52L65.64 25.24L65.82 24.97L66 24.7L66.19 24.44L66.39 24.2L66.6 23.96L66.82 23.73L67.05 23.51L67.28 23.31L67.53 23.11L67.78 22.92L68.05 22.75L68.32 22.59L68.6 22.43L68.88 22.29L69.18 22.16L69.48 22.04L69.79 21.93L70.11 21.84L70.43 21.76L70.77 21.69L71.1 21.63L71.45 21.58L71.8 21.55L72.16 21.53L72.52 21.53L72.74 21.53L72.95 21.53L72.95 21.53L73.16 21.55ZM122.52 21.58L122.84 21.62L123.16 21.67L123.48 21.74L123.79 21.81L124.09 21.9L124.39 21.99L124.68 22.1L124.96 22.22L125.24 22.35L125.51 22.49L125.77 22.64L126.02 22.8L126.27 22.98L126.51 23.16L126.74 23.35L126.96 23.55L127.17 23.76L127.38 23.99L127.57 24.22L127.76 24.46L127.94 24.71L128.11 24.97L128.26 25.24L128.41 25.51L128.55 25.8L128.68 26.1L128.8 26.4L128.91 26.71L129.01 27.04L129.1 27.37L129.17 27.7L129.23 28.05L129.29 28.41L129.33 28.77L129.36 29.14L129.38 29.52L129.38 29.9L129.38 30.12L129.38 30.15L129.38 30.27L129.38 30.3L129.38 30.36L129.38 30.39L129.38 30.46L129.37 30.49L129.37 30.56L129.37 30.59L129.37 30.63L129.37 30.66L129.37 30.7L129.37 30.73L129.37 30.77L129.36 30.81L129.36 30.84L129.36 30.88L129.36 30.92L129.36 30.96L129.36 31L129.36 31.04L129.35 31.08L129.35 31.12L129.35 31.2L129.35 31.24L115.82 31.24L115.75 31.22L115.76 31.52L115.78 31.82L115.82 32.1L115.86 32.38L115.92 32.64L115.98 32.9L116.05 33.15L116.13 33.39L116.23 33.63L116.33 33.85L116.43 34.07L116.55 34.27L116.67 34.47L116.8 34.67L116.94 34.85L117.08 35.02L117.23 35.19L117.39 35.35L117.55 35.5L117.72 35.64L117.89 35.77L118.07 35.9L118.26 36.02L118.45 36.14L118.64 36.24L118.84 36.34L119.04 36.43L119.24 36.51L119.45 36.59L119.66 36.66L119.87 36.72L120.09 36.78L120.31 36.83L120.52 36.87L120.74 36.9L120.97 36.93L121.19 36.95L121.41 36.97L121.64 36.98L121.86 36.98L122.04 36.98L122.21 36.97L122.38 36.96L122.55 36.95L122.72 36.93L122.88 36.91L123.04 36.88L123.2 36.85L123.36 36.81L123.51 36.77L123.66 36.73L123.81 36.69L123.95 36.63L124.09 36.58L124.23 36.52L124.37 36.46L124.5 36.4L124.63 36.33L124.76 36.25L124.88 36.18L125.01 36.1L125.12 36.01L125.24 35.93L125.35 35.84L125.46 35.74L125.57 35.65L125.67 35.54L125.77 35.44L125.86 35.33L125.95 35.22L126.04 35.11L126.13 34.99L126.21 34.87L126.29 34.75L126.37 34.62L126.44 34.49L126.51 34.36L126.57 34.22L126.63 34.08L126.69 33.94L129.27 34.83L129.18 35.04L129.09 35.24L128.99 35.44L128.89 35.63L128.78 35.82L128.66 36L128.54 36.18L128.41 36.36L128.28 36.53L128.15 36.69L128.01 36.85L127.86 37.01L127.71 37.16L127.55 37.31L127.39 37.45L127.23 37.58L127.05 37.71L126.88 37.83L126.7 37.96L126.51 38.07L126.32 38.18L126.13 38.28L125.93 38.38L125.72 38.47L125.51 38.56L125.3 38.65L125.08 38.72L124.86 38.8L124.63 38.86L124.4 38.92L124.17 38.98L123.93 39.03L123.68 39.07L123.43 39.11L123.18 39.14L122.93 39.17L122.67 39.19L122.4 39.2L122.14 39.21L121.86 39.22L121.49 39.21L121.13 39.19L120.77 39.16L120.41 39.12L120.06 39.07L119.72 39L119.38 38.92L119.05 38.84L118.73 38.74L118.41 38.62L118.1 38.5L117.8 38.37L117.51 38.22L117.22 38.07L116.94 37.9L116.67 37.72L116.41 37.53L116.15 37.34L115.91 37.13L115.67 36.91L115.45 36.68L115.23 36.44L115.02 36.19L114.83 35.92L114.64 35.65L114.46 35.37L114.3 35.08L114.14 34.78L114 34.47L113.87 34.15L113.75 33.82L113.64 33.48L113.54 33.13L113.46 32.77L113.38 32.4L113.33 32.03L113.28 31.64L113.24 31.25L113.22 30.84L113.22 30.43L113.22 30.37L113.23 29.98L113.25 29.6L113.28 29.22L113.32 28.84L113.38 28.48L113.45 28.12L113.53 27.77L113.62 27.43L113.73 27.09L113.84 26.77L113.97 26.45L114.11 26.14L114.26 25.83L114.42 25.54L114.58 25.26L114.76 24.98L114.95 24.71L115.15 24.46L115.36 24.21L115.58 23.97L115.8 23.74L116.04 23.53L116.28 23.32L116.53 23.12L116.79 22.93L117.06 22.76L117.33 22.59L117.61 22.44L117.9 22.3L118.2 22.17L118.5 22.05L118.81 21.94L119.13 21.85L119.45 21.76L119.78 21.69L120.11 21.63L120.45 21.59L120.8 21.55L121.15 21.53L121.5 21.53L121.85 21.53L122.18 21.55L122.18 21.55L122.52 21.58ZM9.31 31.92L9.31 36.51L18.76 36.51L23.05 32.4L23.05 26.96L30.32 26.96L30.32 34.18L24.62 34.18L19.72 38.86L6.94 38.86L6.94 30.9L13.03 25.23L13.03 17L23.05 17L23.05 26.96L14.63 26.96L14.63 26.96L9.31 31.92ZM87.76 21.89L90.56 21.89L90.56 38.86L87.76 38.86L87.76 38.86L87.76 21.89ZM49.12 24.41L43.68 24.41L43.68 36.33L48.5 36.33L48.5 38.86L45.06 38.86L44.87 38.86L44.69 38.85L44.51 38.83L44.33 38.81L44.16 38.78L43.99 38.75L43.82 38.71L43.66 38.67L43.5 38.62L43.34 38.56L43.2 38.5L43.05 38.43L42.91 38.36L42.77 38.29L42.63 38.2L42.5 38.12L42.38 38.02L42.26 37.93L42.14 37.82L42.03 37.72L41.92 37.61L41.82 37.49L41.72 37.37L41.63 37.25L41.54 37.12L41.46 36.98L41.38 36.84L41.31 36.7L41.24 36.56L41.18 36.41L41.12 36.25L41.07 36.1L41.03 35.94L40.99 35.77L40.96 35.6L40.93 35.43L40.91 35.26L40.89 35.08L40.88 34.89L40.88 34.71L40.88 24.41L38.3 24.41L38.3 21.89L40.88 21.89L40.88 17.05L43.68 17.05L43.68 21.89L49.12 21.89L49.12 21.89L49.12 24.41ZM108.22 21.89L111.38 21.89L105.65 38.86L102.81 38.86L102.81 38.86L108.22 21.89ZM56.13 28.16L56.13 38.86L53.33 38.86L53.33 21.89L56.13 21.89L56.13 25.47L61.1 21.51L62.51 23.37L62.51 23.37L56.13 28.16ZM94.24 21.89L97.4 21.89L102.81 38.86L99.96 38.86L99.96 38.86L94.24 21.89ZM72.09 24.11L71.76 24.15L71.43 24.2L71.12 24.27L70.82 24.35L70.53 24.44L70.26 24.54L69.99 24.65L69.74 24.78L69.51 24.92L69.28 25.07L69.07 25.24L68.86 25.41L68.67 25.6L68.5 25.8L68.33 26.02L68.18 26.24L68.03 26.48L67.9 26.74L67.78 27L67.67 27.28L67.58 27.57L67.5 27.88L67.42 28.19L67.36 28.52L67.31 28.87L67.27 29.22L67.24 29.59L67.23 29.98L67.22 30.37L67.23 30.77L67.24 31.15L67.27 31.52L67.31 31.88L67.36 32.22L67.42 32.55L67.5 32.87L67.58 33.17L67.67 33.46L67.78 33.74L67.9 34.01L68.03 34.26L68.18 34.5L68.33 34.73L68.5 34.94L68.67 35.14L68.86 35.33L69.07 35.51L69.28 35.67L69.51 35.82L69.74 35.96L69.99 36.09L70.26 36.21L70.53 36.31L70.82 36.4L71.12 36.48L71.43 36.54L71.76 36.6L72.09 36.64L72.44 36.67L72.8 36.69L73.18 36.69L73.55 36.69L73.92 36.67L74.27 36.64L74.6 36.6L74.93 36.54L75.24 36.48L75.54 36.4L75.83 36.31L76.1 36.21L76.36 36.09L76.61 35.96L76.85 35.82L77.08 35.68L77.29 35.51L77.49 35.33L77.68 35.14L77.86 34.94L78.03 34.73L78.18 34.5L78.32 34.26L78.45 34.01L78.57 33.74L78.68 33.46L78.78 33.17L78.86 32.87L78.93 32.55L79 32.22L79.05 31.88L79.09 31.52L79.11 31.15L79.13 30.77L79.14 30.37L79.13 29.98L79.11 29.59L79.09 29.22L79.05 28.87L79 28.52L78.93 28.19L78.86 27.88L78.78 27.57L78.68 27.28L78.57 27L78.45 26.74L78.32 26.48L78.18 26.24L78.03 26.02L77.86 25.8L77.68 25.6L77.49 25.41L77.29 25.24L77.08 25.07L76.85 24.92L76.61 24.78L76.36 24.65L76.1 24.54L75.83 24.44L75.54 24.35L75.24 24.27L74.93 24.2L74.6 24.15L74.27 24.11L73.92 24.08L73.55 24.06L73.18 24.05L72.8 24.06L72.44 24.08L72.44 24.08L72.09 24.11ZM120.25 23.97L119.86 24.04L119.49 24.14L119.12 24.26L118.77 24.39L118.43 24.55L118.11 24.73L117.81 24.93L117.52 25.16L117.25 25.4L117 25.66L116.77 25.95L116.57 26.25L116.38 26.58L116.23 26.92L116.1 27.29L115.99 27.68L115.92 28.09L115.87 28.52L115.85 28.96L126.77 28.96L126.76 28.51L126.72 28.07L126.66 27.65L126.59 27.26L126.49 26.89L126.36 26.54L126.21 26.21L126.05 25.91L125.86 25.62L125.65 25.36L125.41 25.12L125.16 24.9L124.88 24.71L124.58 24.53L124.27 24.38L123.93 24.24L123.57 24.13L123.19 24.04L122.79 23.96L122.37 23.91L121.93 23.88L121.46 23.87L121.05 23.88L120.65 23.91L120.65 23.91L120.25 23.97ZM132.06 23.99L131.57 23.99L131.57 21.92L130.77 21.92L130.77 21.51L132.86 21.51L132.86 21.92L132.06 21.92L132.06 21.92L132.06 23.99ZM135.47 22.49L135.47 22.46L135.47 22.42L135.47 22.38L135.46 22.34L135.46 22.3L135.46 22.25L135.46 22.17L135.46 22.12L135.46 22.03L135.46 21.98L135.46 21.93L135.45 21.84L135.42 21.84L135.4 21.92L135.39 21.96L135.34 22.15L135.32 22.2L135.31 22.25L135.29 22.3L135.27 22.39L135.25 22.44L135.24 22.49L135.23 22.53L135.21 22.58L134.76 23.96L134.25 23.96L133.8 22.54L133.79 22.5L133.78 22.46L133.75 22.34L133.74 22.29L133.73 22.24L133.71 22.2L133.7 22.15L133.69 22.1L133.68 22.06L133.67 22.01L133.66 21.96L133.64 21.92L133.62 21.84L133.6 21.84L133.59 21.88L133.59 22.05L133.59 22.09L133.59 22.14L133.59 22.18L133.59 22.23L133.59 22.27L133.58 22.31L133.58 22.36L133.58 22.4L133.58 22.44L133.58 22.49L133.58 22.53L133.48 23.99L133.01 23.99L133.19 21.51L133.94 21.51L134.37 22.72L134.38 22.76L134.39 22.79L134.41 22.86L134.46 23.05L134.48 23.13L134.49 23.17L134.5 23.22L134.51 23.26L134.52 23.31L134.53 23.35L134.54 23.35L134.58 23.23L134.59 23.19L134.6 23.14L134.62 23.06L134.63 23.02L134.64 22.99L134.65 22.95L134.67 22.91L134.68 22.87L134.69 22.84L134.7 22.8L134.71 22.77L134.72 22.73L135.15 21.51L135.87 21.51L136.06 23.99L135.56 23.99L135.47 22.53L135.47 22.53L135.47 22.49ZM87.76 15.66L90.56 15.66L90.56 18.44L87.76 18.44L87.76 18.44L87.76 15.66ZM23.05 9.78L30.32 9.78L30.32 17L23.05 17L23.05 17L23.05 9.78Z" id="c16nS4EQ6i"></path></defs><g><g><g><use xlink:href="#c16nS4EQ6i" opacity="1" fill="#00ffd9" fill-opacity="1"></use><g><use xlink:href="#c16nS4EQ6i" opacity="1" fill-opacity="0" stroke="#000000" stroke-width="1" stroke-opacity="0"></use></g></g></g></g></svg>